<svg class="icon" viewBox="0 0 1024 1024" version="1.1"
  xmlns="http://www.w3.org/2000/svg" width="200" height="200">
  <path
    d="M755.2 25.6a243.2 243.2 0 0 1 243.2 243.2v486.4a243.2 243.2 0 0 1-243.2 243.2H268.8A243.2 243.2 0 0 1 25.6 755.2V268.8A243.2 243.2 0 0 1 268.8 25.6h486.4z m-243.228444 630.983111c-15.416889 0-26.567111 15.530667-46.933334 46.592l-12.288 18.773333c-28.046222 42.808889-42.040889 64.227556-33.365333 80.753778 6.826667 13.027556 24.035556 15.786667 55.864889 16.355556l13.511111 0.142222h46.421333c40.533333-0.170667 61.582222-1.706667 69.347556-16.497778 8.675556-16.526222-5.319111-37.944889-33.365334-80.782222l-19.968-30.350222c-15.729778-23.324444-25.884444-34.986667-39.253333-34.986667zM638.179556 256h-252.444445c-59.477333 0.113778-91.363556 1.422222-116.053333 15.928889a129.479111 129.479111 0 0 0-50.460445 55.296c-11.918222 24.462222-14.051556 76.515556-14.421333 137.955555v80.554667c0.398222 53.333333 2.56 84.024889 14.421333 108.373333a129.479111 129.479111 0 0 0 50.460445 55.324445c20.792889 12.202667 46.705778 15.047111 89.912889 15.701333l35.84 0.199111c1.792-3.100444 3.640889-6.257778 5.546666-9.443555l28.16-46.449778c8.533333-13.966222 17.095111-27.477333 25.571556-37.745778 11.264-13.681778 29.752889-30.947556 57.258667-30.947555 27.477333 0 45.966222 17.265778 57.230222 30.947555 10.183111 12.316444 20.48 29.297778 30.72 46.136889l23.04 38.058667 5.518222 9.443555c65.792 0 99.754667-0.654222 125.752889-15.900444a129.479111 129.479111 0 0 0 50.460444-55.324445c11.377778-23.324444 13.824-52.48 14.364445-101.745777L819.2 506.311111l-0.028444-29.070222c-0.199111-66.616889-1.792-123.960889-14.506667-150.016a129.479111 129.479111 0 0 0-50.432-55.324445c-21.930667-12.856889-49.578667-15.331556-97.223111-15.786666L638.179556 256z"
    fill="#B284FF"></path>
</svg>
