<svg class="icon" viewBox="0 0 1024 1024" version="1.1"
  xmlns="http://www.w3.org/2000/svg" width="200" height="200">
  <path
    d="M846.014 47.419H177.986c-71.812 0-130.567 58.755-130.567 130.567v668.03c0 71.81 58.755 130.566 130.567 130.566h668.03c71.81 0 130.566-58.755 130.566-130.567v-668.03c-0.001-71.81-58.756-130.566-130.568-130.566z m-118.368 723.56c-44.395 0-80.492-36.128-80.492-80.513 0-37.552 25.89-69.08 60.713-77.942v-86.377c0-12.184-9.91-22.103-22.093-22.103H524.075v108.49c34.831 8.872 60.713 40.39 60.713 77.942 0 44.396-36.108 80.513-80.492 80.513-44.386 0-80.503-36.127-80.503-80.513 0-37.551 25.89-69.08 60.713-77.941V504.044h-146.27c-12.193 0-22.103 9.919-22.103 22.103v86.377c34.842 8.872 60.723 40.39 60.723 77.942 0 44.395-36.107 80.512-80.502 80.512s-80.494-36.127-80.494-80.512c0-37.552 25.892-69.08 60.714-77.942v-86.377c0-34.001 27.662-61.662 61.662-61.662h146.27v-53.04c-34.822-8.861-60.713-40.39-60.713-77.94 0-44.385 36.127-80.493 80.503-80.493 44.395 0 80.492 36.108 80.492 80.493 0 37.561-25.89 69.09-60.713 77.94v53.04h161.698c33.99 0 61.653 27.66 61.653 61.662v86.377c34.841 8.862 60.703 40.39 60.713 77.942 0 44.395-36.097 80.512-80.493 80.512z"
    fill="#1afa29"></path>
</svg>
